<svg xmlns="http://www.w3.org/2000/svg" version="1.1" xmlns:xlink="http://www.w3.org/1999/xlink" xmlns:svgjs="http://svgjs.com/svgjs" width="1440" height="560" preserveAspectRatio="none" viewBox="0 0 1440 560"><g mask="url(&quot;#SvgjsMask1033&quot;)" fill="none"><rect width="1440" height="560" x="0" y="0" fill="rgba(19, 59, 99, 1)"></rect><path d="M754.87-69.17C611.52-36.63 584.13 320.36 335.73 343.19 87.33 366.02 26.2 470.55-83.41 471.99" stroke="rgba(69, 7, 81, 0.38)" stroke-width="2"></path><path d="M605.57-55.31C507.81-27.77 565.49 231.6 332.92 245.85 100.35 260.1-71.28 390.2-212.38 391.45" stroke="rgba(69, 7, 81, 0.38)" stroke-width="2"></path><path d="M1088.22-25.61C923.91-15.18 828.59 281.27 512.17 293.54 195.75 305.81 89.13 497.62-63.88 500.74" stroke="rgba(69, 7, 81, 0.38)" stroke-width="2"></path><path d="M1191.19-50.07C989.94-18.38 887.79 464.04 561.41 467.1 235.03 470.16 94.94 295.08-68.37 293.5" stroke="rgba(69, 7, 81, 0.38)" stroke-width="2"></path><path d="M1033.66-76.93C864.44-63.46 765.8 267.19 453.38 275.72 140.97 284.25 20.86 387.21-126.89 387.72" stroke="rgba(69, 7, 81, 0.38)" stroke-width="2"></path></g><defs><mask id="SvgjsMask1033"><rect width="1440" height="560" fill="#ffffff"></rect></mask></defs></svg>