<svg xmlns="http://www.w3.org/2000/svg" version="1.1" xmlns:xlink="http://www.w3.org/1999/xlink" xmlns:svgjs="http://svgjs.com/svgjs" width="1874" height="974" preserveAspectRatio="none" viewBox="0 0 1874 974"><g mask="url(&quot;#SvgjsMask2130&quot;)" fill="none"><rect width="1874" height="974" x="0" y="0" fill="url(#SvgjsLinearGradient2131)"></rect><path d="M-247.01 447.1C-112.91 447.9 14.2 568.85 275.4 568.85 536.61 568.85 497.8 426.64 797.82 447.1 1097.83 467.56 1114.75 1080.96 1320.23 1164.82" stroke="rgba(84, 64, 94, 0.32)" stroke-width="2"></path><path d="M-36.45 274.23C107.63 282.65 160.56 509.71 472.36 546.95 784.15 584.19 812.27 977.54 981.16 1010.49" stroke="rgba(84, 64, 94, 0.32)" stroke-width="2"></path><path d="M-188.79 411.2C26.91 404.08 270.77 53.02 604.33 70.3 937.89 87.58 807.92 849.27 1000.89 1019.16" stroke="rgba(84, 64, 94, 0.32)" stroke-width="2"></path><path d="M-63.01 419.61C159.53 440.36 373.56 891.78 686.72 906.61 999.88 921.44 966.35 974.24 1061.59 974.51" stroke="rgba(84, 64, 94, 0.32)" stroke-width="2"></path><path d="M-72.99 309.17C104.51 323.32 166.67 638.63 535.55 679.29 904.43 719.95 952.35 1131.37 1144.09 1159.04" stroke="rgba(84, 64, 94, 0.32)" stroke-width="2"></path></g><defs><mask id="SvgjsMask2130"><rect width="1874" height="974" fill="#ffffff"></rect></mask><linearGradient x1="12.01%" y1="-23.1%" x2="87.99%" y2="123.1%" gradientUnits="userSpaceOnUse" id="SvgjsLinearGradient2131"><stop stop-color="rgba(37, 90, 144, 1)" offset="0"></stop><stop stop-color="rgba(139, 96, 188, 1)" offset="1"></stop></linearGradient></defs></svg>