<svg xmlns="http://www.w3.org/2000/svg" version="1.1" xmlns:xlink="http://www.w3.org/1999/xlink"
    xmlns:svgjs="http://svgjs.com/svgjs" width="1920" height="1080" preserveAspectRatio="none" viewBox="0 0 1920 1080">
    <g mask="url(&quot;#SvgjsMask1155&quot;)" fill="none">
        <rect width="1920" height="1080" x="0" y="0" fill="rgba(31, 41, 55, 1)"></rect>
        <path
            d="M -777.2785947681248,893 C -681.28,733 -489.28,102.4 -297.2785947681248,93 C -105.28,83.6 -9.28,771.6 182.72140523187522,846 C 374.72,920.4 470.72,490.2 662.7214052318752,465 C 854.72,439.8 950.72,727.6 1142.7214052318752,720 C 1334.72,712.4 1467.27,415 1622.7214052318752,427 C 1778.18,439 1860.54,709.4 1920,780"
            stroke="rgba(51, 121, 194, 0.58)" stroke-width="2"></path>
        <path
            d="M -354.5086336980652,954 C -258.51,797.4 -66.51,188 125.49136630193485,171 C 317.49,154 413.49,801 605.4913663019348,869 C 797.49,937 893.49,553.4 1085.491366301935,511 C 1277.49,468.6 1373.49,693.2 1565.491366301935,657 C 1757.49,620.8 1974.59,288.2 2045.491366301935,330 C 2116.39,371.8 1945.1,758.8 1920,866"
            stroke="rgba(51, 121, 194, 0.58)" stroke-width="2"></path>
        <path
            d="M -351.2352828585235,651 C -255.24,607.4 -63.24,411.8 128.76471714147652,433 C 320.76,454.2 416.76,770.8 608.7647171414765,757 C 800.76,743.2 896.76,393.8 1088.7647171414765,364 C 1280.76,334.2 1376.76,596.8 1568.7647171414765,608 C 1760.76,619.2 1978.52,415 2048.7647171414765,420 C 2119.01,425 1945.75,590.4 1920,633"
            stroke="rgba(51, 121, 194, 0.58)" stroke-width="2"></path>
        <path
            d="M -587.3736286099607,646 C -491.37,614.8 -299.37,448.8 -107.37362860996079,490 C 84.63,531.2 180.63,895 372.6263713900392,852 C 564.63,809 660.63,309.8 852.6263713900393,275 C 1044.63,240.2 1140.63,712.8 1332.6263713900391,678 C 1524.63,643.2 1695.15,94.2 1812.6263713900391,101 C 1930.1,107.8 1898.53,589.8 1920,712"
            stroke="rgba(51, 121, 194, 0.58)" stroke-width="2"></path>
    </g>
    <defs>
        <mask id="SvgjsMask1155">
            <rect width="1920" height="1080" fill="#ffffff"></rect>
        </mask>
    </defs>
</svg>